<svg xmlns="http://www.w3.org/2000/svg" viewBox="0 0 426.89362 449.10226"><title>1st D</title><g id="_1stD" data-name="1stD"><g id="_1stD_Logo" data-name="1stD Logo"><path d="M215.57357,369.44272h-64.297v-16.085h.02026V100.92367h.01953l.01441-3.50732h0l76.744.01416L214.9012,30.04721H187.85689v4.09863h13.41895l-1.27149,6.144H187.85689v16.9502a23.94549,23.94549,0,0,0,.24707,3.81348,4.35645,4.35645,0,0,0,.95313,2.25976,3.67183,3.67183,0,0,0,2.01269,1.05957,16.33973,16.33973,0,0,0,3.35547.28223H200.852l-1.27149,6.00293h-5.085a31.40907,31.40907,0,0,1-6.95605-.63526,9.08014,9.08014,0,0,1-4.30859-2.1538,7.99276,7.99276,0,0,1-2.18946-4.06153,28.23558,28.23558,0,0,1-.60058-6.356V30.04721H53.09859V365.12484H13.12239l-.01367,74.877H229.36715ZM142.58736,70.65805l1.27149-6.14405q3.813.07106,7.76855.106,3.95361.03663,7.13281.03516,4.0957,0,5.61426-.918,1.519-.917,1.51855-3.60156a6.93133,6.93133,0,0,0-.17578-1.58936,2.84509,2.84509,0,0,0-.707-1.30615,4.10836,4.10836,0,0,0-1.51855-.9541,9.84294,9.84294,0,0,0-2.6836-.5293l-8.47461-.77685a12.56855,12.56855,0,0,1-4.44921-1.09473,8.99206,8.99206,0,0,1-2.96582-2.189,8.4335,8.4335,0,0,1-1.66016-2.93115,10.65731,10.65731,0,0,1-.5293-3.31933V44.245a9.18847,9.18847,0,0,1,3.31934-7.52148q3.31786-2.718,10.876-2.71875h7.0625q3.67091,0,8.2627.14111l-1.27148,6.144q-2.96631-.06883-5.22559-.10546-2.26172-.03516-3.99023-.03565h-5.61524q-3.60205,0-5.01367.88281a3.40855,3.40855,0,0,0-1.41309,3.14307,6.69541,6.69541,0,0,0,.17676,1.624,2.4021,2.4021,0,0,0,.70606,1.20069,4.33645,4.33645,0,0,0,1.55371.84716,11.44817,11.44817,0,0,0,2.71972.49463l8.19239.77686a13.98218,13.98218,0,0,1,5.15527,1.30664,8.19741,8.19741,0,0,1,4.48437,5.5791,14.16141,14.16141,0,0,1,.38868,3.21338v.98877a9.3076,9.3076,0,0,1-3.60157,7.80371q-3.602,2.79126-11.08886,2.79-3.17726,0-7.37989-.03516Q146.82419,70.72788,142.58736,70.65805Z" fill="#0f284a"/><path d="M404.8525,117.54879Q396.40108,82.38593,375.435,58.94353q-20.97144-23.44191-56.50537-35.16336-35.53858-11.721-89.127-11.72046H58.53951V23.82233l161.22705.03628-.04321-.22013.04321.22013h.16309L233.81636,95.2605a155.14418,155.14418,0,0,1,31.52051,4.25605q17.47632,4.50807,28.25293,16.229,10.77173,11.721,15.437,32.158,4.65528,20.44145,4.66016,52.89457v49.89017q0,32.458-4.66016,53.19511-4.66919,20.73782-15.437,32.45852-10.78638,11.721-28.25293,16.229-17.47558,4.50807-43.10693,4.50806H157.29683l.00733,6.73,63.22143.47753,14.69361,75.7153q50.53821-.40521,84.293-11.99551,34.9519-12.01659,55.92285-36.06448,20.9707-24.03391,29.41748-59.20634,8.4375-35.16287,8.44677-81.4461V200.197Q413.29927,152.722,404.8525,117.54879Z" fill="#0f284a"/><rect x="53.10638" y="12.05971" width="7.8163" height="11.75266" fill="#0f284a"/></g></g></svg>