<svg xmlns="http://www.w3.org/2000/svg" viewBox="0 0 129.19149 133.78723"><title>sahifati arch</title><g id="Sahifati_Logo" data-name="Sahifati Logo"><path d="M28.69737,131.53106a6.65405,6.65405,0,0,1,0-13.3081h44.7207a6.65405,6.65405,0,0,1,0,13.3081Zm44.91211-23.635-.19141.00391H9.006a6.65369,6.65369,0,1,1,0-13.30737H39.15342A52.68566,52.68566,0,1,1,74.15635,107.9Zm.54687-94.02612A41.34619,41.34619,0,1,0,115.503,55.21661,41.39321,41.39321,0,0,0,74.15635,13.86993Z" fill="#1d6652"/><path d="M74.15635,3.03106a52.18445,52.18445,0,1,1,0,104.3689c-.18017,0-.36084-.00195-.541-.00391-.06543.002-.13135.00391-.19727.00391H9.006a6.15369,6.15369,0,1,1,0-12.30737H40.49327A52.18582,52.18582,0,0,1,74.15635,3.03106m0,94.03125a41.84619,41.84619,0,1,0-41.8457-41.8457,41.846,41.846,0,0,0,41.8457,41.8457M73.41807,118.723a6.15405,6.15405,0,0,1,0,12.3081H28.69737a6.15405,6.15405,0,0,1,0-12.3081h44.7207m.73828-116.6919A53.18519,53.18519,0,0,0,37.86241,94.09259H9.006a7.15369,7.15369,0,1,0,0,14.30737H73.41807c.07617,0,.15186-.0022.22705-.0044.14307.00245.32764.0044.51123.0044a53.18445,53.18445,0,1,0,0-106.3689Zm0,94.03125a40.84619,40.84619,0,1,1,40.8462-40.8457,40.89251,40.89251,0,0,1-40.8462,40.8457ZM73.41856,117.723H28.69737a7.15405,7.15405,0,0,0,0,14.3081h44.7207a7.15405,7.15405,0,0,0,.00049-14.3081Z" fill="#edf3d7"/></g></svg>