<?xml version="1.0" encoding="utf-8"?>
<svg xmlns="http://www.w3.org/2000/svg" viewBox="0 0 123.49 128" aria-hidden="true">
  <path fill="#1D6652" d="M70.57,115.69c3.4,0,6.15,2.75,6.15,6.15c0,3.4-2.75,6.15-6.15,6.15H25.85c-3.4,0-6.15-2.76-6.15-6.15c0-3.4,2.75-6.15,6.15-6.15H70.57z M71.3,0c28.82,0,52.18,23.36,52.18,52.18c0,28.82-23.36,52.18-52.18,52.18c-0.18,0-0.36,0-0.54,0c-0.07,0-0.13,0-0.2,0H6.15c-3.4,0-6.15-2.76-6.15-6.15c0-3.4,2.76-6.15,6.15-6.15h31.49c-11.33-9.57-18.52-23.88-18.52-39.88C19.12,23.36,42.48,0,71.3,0z M71.3,10.34c-23.11,0-41.85,18.74-41.85,41.85c0,23.11,18.73,41.85,41.85,41.85s41.85-18.73,41.85-41.85C113.15,29.07,94.42,10.34,71.3,10.34z"/>
</svg>
