<?xml version="1.0" encoding="utf-8"?>
<svg xmlns="http://www.w3.org/2000/svg" viewBox="0 0 90.69 94" aria-hidden="true">
  <path fill="#EDF3D7" d="M51.82,84.96c2.5,0,4.52,2.02,4.52,4.52c0,2.5-2.02,4.52-4.52,4.52H18.98c-2.5,0-4.52-2.02-4.52-4.52c0-2.5,2.02-4.52,4.52-4.52H51.82z M52.36,0c21.17,0,38.32,17.16,38.32,38.32c0,21.17-17.16,38.32-38.32,38.32c-0.13,0-0.27,0-0.4,0c-0.05,0-0.1,0-0.14,0H4.52c-2.5,0-4.52-2.02-4.52-4.52c0-2.5,2.02-4.52,4.52-4.52h23.12c-8.32-7.03-13.6-17.54-13.6-29.28C14.04,17.16,31.2,0,52.36,0z M52.36,7.59c-16.97,0-30.73,13.76-30.73,30.73c0,16.97,13.76,30.73,30.73,30.73c16.97,0,30.73-13.76,30.73-30.73C83.09,21.35,69.34,7.59,52.36,7.59z"/>
</svg>
