<svg xmlns="http://www.w3.org/2000/svg" viewBox="0 0 198.4252 198.4252"><title>sahifati Logo-15</title><g id="Sahifati_Logo" data-name="Sahifati Logo"><path d="M142.52955,144.81289a6.18551,6.18551,0,1,1,0,12.371H28.70906a6.18551,6.18551,0,1,1,0-12.371Zm.742-116.295a52.4565,52.4565,0,1,1,0,104.913c-.181,0-.362-.002-.543-.004-.066.002-.133.004-.199.004H8.91411a6.186,6.186,0,0,1,0-12.372H109.43456a52.45694,52.45694,0,0,1,33.837-92.541Zm.001,10.3926a42.064,42.064,0,1,0,42.063,42.0644A42.065,42.065,0,0,0,143.27256,38.9105Z" fill="#1d6652"/></g></svg>